<svg width="512" height="184" viewBox="0 0 512 184" fill="none" xmlns="http://www.w3.org/2000/svg">
<path d="M173.136 48.7362C166.986 61.7581 160.551 75.8869 153.83 91.1225C153.46 92.3034 152.689 93.3183 151.651 93.9923C151.612 93.9806 151.57 93.9806 151.531 93.9923C151.474 94.0648 151.408 94.1304 151.336 94.1876C151.208 94.2754 151.072 94.3509 150.93 94.413C150.251 94.8012 149.508 95.0657 148.737 95.1943C148.105 95.2684 147.505 95.5067 146.994 95.8855C146.423 96.2953 145.755 96.549 145.056 96.6217C143.463 96.9373 142.532 96.3663 142.247 94.9239C141.746 92.3696 144.165 85.1224 149.503 73.1823C154.842 61.2422 160.185 50.0684 165.533 39.6609L166.42 37.933C152.404 18.635 131.442 5.53504 107.954 1.39609C84.4667 -2.74286 60.2899 2.40269 40.5228 15.7475C20.7556 29.0924 6.94335 49.5934 1.99894 72.9268C-2.94547 96.2602 1.36451 120.602 14.0199 140.819C26.6753 161.035 46.6868 175.546 69.834 181.291C92.9812 187.036 117.455 183.566 138.093 171.613C158.731 159.659 173.921 140.157 180.458 117.219C186.996 94.2811 184.37 69.7004 173.136 48.6611V48.7362ZM129.717 108.612C118.521 119.92 108.27 132.126 99.0681 145.108C98.5194 146.165 98.0474 147.259 97.6558 148.384C96.9047 150.322 96.0633 152.305 95.1619 154.394C94.2019 156.536 92.9861 158.554 91.5412 160.404C90.5412 161.937 89.1231 163.152 87.4547 163.905C86.2528 164.281 85.4715 164.506 85.141 164.566C81.1347 165.347 78.806 163.965 78.1549 160.419C77.3236 156.262 78.826 150.928 82.6621 144.417C84.3196 141.539 86.1718 138.778 88.2059 136.153C90.5195 133.148 91.7815 131.51 91.9769 131.135C92.1722 130.759 94.3656 124.794 98.5422 113.21C95.6539 117.456 92.4445 121.474 88.942 125.23C86.4087 128.084 83.171 130.224 79.5522 131.435L79.1014 131.525C77.3376 131.846 75.5195 131.68 73.8431 131.045C72.7569 130.66 71.8452 129.897 71.274 128.896C67.8789 132.208 63.6111 134.486 58.9695 135.462C51.8683 136.864 47.7718 134.776 46.68 129.197C45.7786 124.338 48.6732 113.771 55.3638 97.4932C55.6042 96.8922 55.7695 96.4715 55.8596 96.216C52.935 98.8905 47.6916 105.727 40.1297 116.726C32.5677 127.724 27.5898 135.432 25.196 139.849C24.7546 140.481 24.167 140.997 23.4833 141.352C22.7911 141.859 22.0121 142.236 21.1846 142.464C20.5277 142.57 19.8556 142.528 19.2165 142.344C18.7803 142.197 18.3245 142.116 17.8644 142.103C17.2935 142.208 16.993 142.103 16.9179 141.788C17.1843 139.852 17.6115 137.943 18.1949 136.078C19.0963 132.592 20.3383 128.245 21.9208 123.036C26.2176 108.652 33.0935 89.7001 42.5485 66.1805C44.8618 60.1067 47.5668 54.1893 50.6463 48.4657C52.1187 45.9315 55.0934 44.2236 59.5705 43.3421C60.532 43.1618 61.0729 43.3421 61.3433 43.7628C61.5706 44.241 61.7372 44.7458 61.8391 45.2654C61.9736 45.8538 61.9736 46.465 61.8391 47.0534L56.6559 58.0218C46.6901 79.5981 39.4536 97.2628 34.9464 111.016C39.4539 103.483 44.9348 96.5768 51.2473 90.4764C54.6827 87.251 57.382 85.4379 59.3451 85.0372C61.1539 84.6647 63.0119 84.5937 64.8438 84.8269C65.6907 84.9648 66.4656 85.3864 67.0415 86.0224C67.6175 86.6585 67.9603 87.4713 68.0139 88.3278C68.1641 89.0891 67.3127 92.1843 65.4598 97.6134C59.921 113.881 57.3119 122.856 57.6324 124.539C57.9479 126.161 58.8493 126.823 60.3667 126.522C62.5602 126.086 65.58 123.517 69.381 118.874L71.1088 116.756C71.274 116.26 71.4543 115.779 71.6496 115.253C72.1905 113.931 73.147 111.667 74.5192 108.462C75.8913 105.256 77.1333 102.186 78.2451 99.2511C79.5092 96.5567 80.6325 93.7983 81.6104 90.9873C82.6921 87.892 83.5635 85.6533 84.1795 84.286C84.7955 82.9187 85.5166 82.1524 86.2828 82.0021C87.4144 81.9251 88.5447 82.17 89.543 82.7083C90.1434 82.9162 90.6822 83.2713 91.11 83.7411C91.5378 84.211 91.841 84.7806 91.9919 85.3979C92.2122 86.5899 90.3893 92.2694 86.5232 102.437C82.6571 112.604 80.8542 118.303 81.1146 119.535C81.1146 119.836 81.3851 119.956 81.7156 119.896C82.8874 119.67 85.1711 117.702 88.5965 114.006C92.5523 109.638 96.2303 105.026 99.6089 100.198C103.419 95.052 106.753 89.5702 109.57 83.8202C109.855 83.2192 110.081 82.7384 110.261 82.4078L110.952 81.0856C111.222 80.5447 111.448 80.109 111.628 79.7934C111.808 79.4779 112.034 79.1173 112.289 78.6966C112.487 78.3366 112.724 77.9991 112.995 77.6899L113.731 76.9537C114.11 76.4904 114.644 76.1807 115.234 76.0822C116.133 75.9379 117.043 75.8775 117.953 75.9019C118.725 75.8147 119.507 75.9285 120.222 76.2324C120.507 76.4428 120.808 76.6381 121.108 76.8184C121.527 77.0431 121.844 77.4194 121.994 77.8702C122.03 78.3828 121.948 78.8968 121.754 79.3727C121.529 80.0188 120.101 83.4446 117.517 89.6049C109.865 107.816 104.737 121.013 102.133 129.197C107.722 123.036 115.529 114.021 125.555 102.151C125.9 101.752 126.363 101.473 126.877 101.355C128.209 101.094 129.211 102.777 129.882 106.403C130.012 106.762 130.064 107.145 130.036 107.525C130.007 107.906 129.899 108.276 129.717 108.612V108.612ZM144.125 117.131C142.629 119.483 140.273 121.155 137.559 121.789C135.05 122.285 133.563 121.308 133.052 118.889C132.844 117.599 132.928 116.279 133.297 115.026C133.666 113.773 134.311 112.618 135.185 111.647C136.79 109.432 139.154 107.886 141.826 107.305C144.335 106.809 145.822 107.665 146.333 109.874C146.483 111.171 146.365 112.484 145.985 113.733C145.605 114.981 144.972 116.138 144.125 117.131V117.131Z" fill="white"/>
<path d="M243.552 74.1542C239.997 74.0883 236.474 74.8403 233.256 76.3522C230.038 77.864 227.21 80.0952 224.991 82.8736V46.7675H210.011V143.655H224.991V94.919C226.195 92.386 228.112 90.2597 230.507 88.8012C232.902 87.3427 235.671 86.6155 238.473 86.709C240.064 86.6047 241.66 86.8157 243.169 87.3299C244.678 87.8441 246.071 88.6513 247.267 89.7053C249.264 91.7029 250.263 95.0388 250.263 99.7132V143.655H265.243V99.0839C265.024 82.4641 257.793 74.1542 243.552 74.1542Z" fill="white"/>
<path d="M332.355 106.665C331.906 96.8567 328.87 88.9862 323.247 83.0534C317.625 77.1206 310.319 74.1542 301.331 74.1542C295.643 74.0428 290.039 75.5439 285.167 78.484C280.399 81.4495 276.602 85.7462 274.247 90.844C271.595 96.5034 270.268 102.693 270.367 108.942V109.691C270.367 120.388 273.193 128.943 278.846 135.355C284.498 141.767 292.033 144.973 301.451 144.973C307.187 145.104 312.843 143.608 317.765 140.658C322.512 137.705 326.289 133.423 328.625 128.343C331.231 122.688 332.527 116.517 332.415 110.29L332.355 106.665ZM313.255 126.68C311.962 128.603 310.198 130.163 308.132 131.212C306.066 132.261 303.766 132.764 301.451 132.673C299.131 132.755 296.828 132.248 294.756 131.2C292.684 130.152 290.911 128.598 289.601 126.68C286.765 122.685 285.347 117.192 285.347 110.2C285.347 102.29 286.785 96.3473 289.661 92.3721C291.009 90.5178 292.778 89.0103 294.823 87.9738C296.868 86.9372 299.129 86.4013 301.422 86.41C303.714 86.4188 305.971 86.9721 308.008 88.0243C310.044 89.0765 311.802 90.5975 313.136 92.462C316.042 96.4571 317.49 101.95 317.48 108.942C317.48 116.723 316.072 122.635 313.255 126.68Z" fill="white"/>
<path d="M368.982 103.893L393.79 75.4277H375.813L357.373 96.7018L352.684 102.695V46.7675H337.703V143.655H352.684V121.437L359.35 114.425L379.109 143.655H396.441L368.982 103.893Z" fill="white"/>
<path d="M397.041 75.4127V143.655H412.021V75.4127H397.041ZM410.853 51.8163C410.025 51.0086 409.038 50.3832 407.954 49.9806C406.871 49.5781 405.715 49.4072 404.561 49.4792C403.449 49.383 402.329 49.5269 401.278 49.9012C400.226 50.2754 399.268 50.8713 398.466 51.6484C397.665 52.4255 397.04 53.3657 396.634 54.4053C396.228 55.4449 396.05 56.5598 396.112 57.6742C396.047 59.8155 396.833 61.8952 398.299 63.4572C399.127 64.2523 400.111 64.8666 401.189 65.2612C402.267 65.6558 403.415 65.8221 404.561 65.7494C405.712 65.8188 406.865 65.6497 407.948 65.2527C409.03 64.8557 410.019 64.2393 410.853 63.4422C411.578 62.6722 412.144 61.7659 412.516 60.7758C412.889 59.7857 413.062 58.7315 413.025 57.6742C413.066 56.6029 412.895 55.534 412.522 54.5289C412.15 53.5237 411.582 52.6019 410.853 51.8163V51.8163Z" fill="white"/>
<path d="M452.588 58.0637C454.507 58.0406 456.424 58.2062 458.31 58.5582L458.685 46.5727C455.948 45.84 453.129 45.4574 450.296 45.4341C442.896 45.4341 437.138 47.4966 433.024 51.6216C428.909 55.7466 426.852 61.5945 426.852 69.1653V75.4127H416.68V86.724H426.852V143.655H441.832V86.724H455.404V75.4127H441.832V69.42C441.842 61.8492 445.427 58.0637 452.588 58.0637Z" fill="white"/>
<path d="M495.986 75.4127L482.414 121.751L468.287 75.4127H452.138L455.419 84.9262L475.568 143.355L473.411 149.213C472.671 151.983 471.103 154.461 468.916 156.314C466.356 157.896 463.365 158.635 460.363 158.427L457.531 158.232V170.218C459.873 170.935 462.304 171.318 464.752 171.356C474.489 171.356 481.395 165.613 485.47 154.127L512 75.4726L495.986 75.4127Z" fill="white"/>
</svg>
